#!OML:ASF F:\VICON\USERDATA\INSTALL\rory3\rory3.ASF
:FULLY-SPECIFIED
:DEGREES
491
root 3.96441 16.4053 0.342264 12.5772 1.48002 3.73075
lowerback 4.4565 1.34796 5.25282
upperback 2.90678 1.98356 -3.4754
thorax 0.816235 1.1082 -6.64473
lowerneck -3.2271 6.11222 2.92762
upperneck 55.2002 8.37802 3.79804
head 25.3387 4.1743 3.37609
rclavicle -4.00551e-014 9.83984e-015
rhumerus -46.7443 17.3486 -104.45
rradius 93.3185
rwrist -55.4722
rhand 2.05589 -46.7891
rfingers 7.12502
rthumb 27.558 -74.7918
lclavicle -4.00551e-014 9.83984e-015
lhumerus -30.2787 -31.5802 91.3372
lradius 97.3943
lwrist 83.0706
lhand -19.9532 -20.3446
lfingers 7.12502
lthumb 6.38497 9.53916
rfemur -60.0318 5.70755 13.4465
rtibia 82.4084
rfoot 14.1097 -2.51341
rtoes -22.3353
lfemur -34.9713 -4.24313 -32.6828
ltibia 48.91
lfoot -23.6248 15.3371
ltoes 9.87284
492
root 3.96798 16.395 0.339138 12.6259 1.37401 3.55872
lowerback 4.43459 1.37128 5.35681
upperback 2.98419 2.01705 -3.42779
thorax 0.916499 1.13173 -6.65294
lowerneck -3.33004 6.15005 2.75993
upperneck 55.1606 8.41087 3.92449
head 25.2906 4.16089 3.48763
rclavicle -4.79071e-014 4.25399e-014
rhumerus -46.7132 17.2537 -104.406
rradius 93.3646
rwrist -55.5502
rhand 2.60967 -45.8368
rfingers 7.12502
rthumb 28.0875 -73.7538
lclavicle -4.79071e-014 4.25399e-014
lhumerus -30.2937 -31.6666 91.3116
lradius 97.2706
lwrist 83.6087
lhand -19.4712 -21.084
lfingers 7.12502
lthumb 6.85026 8.78513
rfemur -60.1762 5.90086 13.6031
rtibia 82.4356
rfoot 13.9001 -3.10396
rtoes -21.1555
lfemur -35.1661 -3.9855 -32.5387
ltibia 49.0372
lfoot -23.632 15.2483
ltoes 9.79069
493
root 3.97306 16.3892 0.335666 12.6672 1.19936 3.48779
lowerback 4.41289 1.42298 5.35861
upperback 3.07022 2.08498 -3.43742
thorax 1.0292 1.17238 -6.66377
lowerneck -3.51024 6.16172 2.59249
upperneck 55.14 8.3617 4.13118
head 25.2954 4.12055 3.64096
rclavicle -8.07563e-015 3.08116e-014
rhumerus -46.5454 17.1836 -104.343
rradius 93.3797
rwrist -55.621
rhand 1.85763 -44.9916
rfingers 7.12502
rthumb 27.3684 -73.0244
lclavicle -8.07563e-015 3.08116e-014
lhumerus -30.2945 -31.7202 91.2392
lradius 97.209
lwrist 83.9825
lhand -19.4761 -21.1806
lfingers 7.12502
lthumb 6.84557 8.68875
rfemur -60.2886 6.10303 13.6332
rtibia 82.4328
rfoot 13.7696 -3.34989
rtoes -20.7045
lfemur -35.3091 -3.66687 -32.5211
ltibia 49.1344
lfoot -23.7672 14.958
ltoes 10.0785
494
root 3.97899 16.3922 0.333215 12.654 1.16601 3.34107
lowerback 4.50747 1.44152 5.47302
upperback 3.05202 2.1175 -3.41611
thorax 0.966602 1.18764 -6.71125
lowerneck -3.45129 6.17505 2.58683
upperneck 55.224 8.3392 4.24429
head 25.3578 4.11768 3.71178
rclavicle 1.72943e-014 1.04362e-015
rhumerus -46.5418 17.0431 -104.309
rradius 93.2899
rwrist -55.6174
rhand 2.96452 -45.222
rfingers 7.12502
rthumb 28.4266 -73.0829
lclavicle 1.72943e-014 1.04362e-015
lhumerus -30.5846 -31.7275 91.3516
lradius 97.1143
lwrist 84.2886
lhand -19.5882 -20.8424
lfingers 7.12502
lthumb 6.73733 9.03045
rfemur -60.2124 6.21554 13.795
rtibia 82.3946
rfoot 13.7745 -3.4089
rtoes -20.8507
lfemur -35.4006 -3.37065 -32.4
ltibia 49.2719
lfoot -23.9131 14.6202
ltoes 10.1192
495
root 3.98426 16.3922 0.334658 12.669 1.30118 3.13693
lowerback 4.54196 1.42652 5.6378
upperback 2.96338 2.10479 -3.32519
thorax 0.85631 1.17621 -6.71188
lowerneck -3.20244 6.2043 2.53749
upperneck 55.3313 8.34841 4.38479
head 25.3462 4.12788 3.79848
rclavicle 7.90169e-015 -2.32081e-014
rhumerus -46.7906 16.8346 -104.241
rradius 93.3
rwrist -55.6106
rhand 3.38263 -44.8327
rfingers 7.12502
rthumb 28.8261 -72.6262
lclavicle 7.90169e-015 -2.32081e-014
lhumerus -31.1487 -31.691 91.6654
lradius 97.0747
lwrist 84.555
lhand -19.7118 -20.302
lfingers 7.12502
lthumb 6.61804 9.57457
rfemur -60.1256 6.18021 14.0556
rtibia 82.3552
rfoot 13.6799 -3.53892
rtoes -20.9544
lfemur -35.504 -3.20266 -32.201
ltibia 49.375
lfoot -23.8448 14.5359
ltoes 9.31888
